<svg width="12" height="7" viewBox="0 0 12 7" fill="none" xmlns="http://www.w3.org/2000/svg">
<path d="M5.9942 0.875037C5.89662 0.876464 5.80343 0.915875 5.73443 0.9849L0.859433 5.8599C0.823444 5.89446 0.794711 5.93584 0.774918 5.98164C0.755124 6.02744 0.744667 6.07673 0.74416 6.12662C0.743653 6.17651 0.753105 6.226 0.771964 6.27219C0.790822 6.31838 0.818707 6.36034 0.853987 6.39562C0.889266 6.4309 0.93123 6.45879 0.977421 6.47764C1.02361 6.4965 1.0731 6.50595 1.12299 6.50545C1.17288 6.50494 1.22217 6.49448 1.26797 6.47469C1.31376 6.4549 1.35515 6.42616 1.38971 6.39017L5.99957 1.78031L10.6094 6.39017C10.644 6.42616 10.6854 6.4549 10.7312 6.47469C10.777 6.49448 10.8263 6.50494 10.8762 6.50545C10.926 6.50595 10.9755 6.4965 11.0217 6.47764C11.0679 6.45878 11.1099 6.4309 11.1452 6.39562C11.1804 6.36034 11.2083 6.31838 11.2272 6.27219C11.246 6.226 11.2555 6.17651 11.255 6.12662C11.2545 6.07673 11.244 6.02744 11.2242 5.98164C11.2044 5.93584 11.1757 5.89446 11.1397 5.8599L6.26471 0.9849C6.22925 0.949432 6.18705 0.921435 6.14058 0.902564C6.09412 0.883693 6.04434 0.874333 5.9942 0.875037Z" fill="#334155"/>
</svg>
