<svg width="17" height="18" viewBox="0 0 17 18" fill="none" xmlns="http://www.w3.org/2000/svg">
<path d="M11.9238 0.0155176C11.8078 0.000485349 11.688 0.00132434 11.5693 0.0184472C11.3321 0.0526927 11.0993 0.153404 10.9092 0.326065C10.9062 0.328646 10.9033 0.33125 10.9004 0.333877L6.66992 4.29677C6.53059 4.42733 6.34794 4.49989 6.15723 4.49989H2.25C1.01625 4.49989 0 5.51614 0 6.74989V11.2499C0 12.4836 1.01625 13.4999 2.25 13.4999H6.15723C6.34794 13.4999 6.53059 13.5725 6.66992 13.703L10.9004 17.6659C10.9033 17.6685 10.9062 17.6711 10.9092 17.6737C11.2894 18.019 11.8413 18.0759 12.2559 17.8925C12.6704 17.709 13 17.2626 13 16.7489V1.25087C13 0.73721 12.6705 0.290759 12.2559 0.107314C12.1522 0.0614532 12.0399 0.0305498 11.9238 0.0155176ZM11.5 1.82704V16.1727L7.69531 12.6083C7.27865 12.2179 6.72852 11.9999 6.15723 11.9999H2.25C1.82675 11.9999 1.5 11.6731 1.5 11.2499V6.74989C1.5 6.32664 1.82675 5.99989 2.25 5.99989H6.15723C6.72852 5.99989 7.27865 5.78193 7.69531 5.3915L11.5 1.82704ZM15.5059 5.1288C15.3758 5.12703 15.2475 5.15911 15.1336 5.22189C15.0197 5.28467 14.9241 5.376 14.8561 5.4869C14.7881 5.5978 14.7502 5.72447 14.746 5.85447C14.7417 5.98447 14.7714 6.11333 14.832 6.22841C15.2573 7.06374 15.5 8.00111 15.5 8.99989C15.5 9.99868 15.2573 10.936 14.832 11.7714C14.7835 11.8594 14.7531 11.9564 14.7428 12.0564C14.7324 12.1564 14.7423 12.2575 14.7718 12.3537C14.8013 12.4498 14.8498 12.5391 14.9145 12.6161C14.9792 12.6931 15.0587 12.7563 15.1483 12.8019C15.2379 12.8476 15.3358 12.8748 15.4361 12.8818C15.5365 12.8889 15.6372 12.8757 15.7323 12.8431C15.8274 12.8104 15.915 12.759 15.9899 12.6918C16.0647 12.6246 16.1253 12.5431 16.168 12.452C16.6947 11.4174 17 10.2431 17 8.99989C17 7.75668 16.6947 6.58241 16.168 5.54775C16.1069 5.42367 16.0128 5.31888 15.896 5.24495C15.7791 5.17102 15.6441 5.13082 15.5059 5.1288Z" fill="#334155"/>
</svg>
